:SAMPLES-PER-SECOND 30
:FRAME-RANGE 1-2775
:FULLY-SPECIFIED
:DEGREES
868
root  74.1967 39.0295 49.926 -178.645 22.4319 179.18
RightUpLeg  2.11157 -6.79393 -4.04779
RightLeg  14.5209 -13.5669 -3.22927
RightFoot  -14.9427 0.188219 9.20044
RightToes  1.218e-010 1.26228e-014 -6.01869e-014
Spine  -5.42994 1.58244 5.1114
Spine1  9.42766 1.6039 -1.08742
HEad  3.78186 18.3521 -11.9643
LeftShoulder1  0.715126 0.935044 -24.1878
LeftArm  -5.72653 11.3197 -46.9734
LeftForeArm  35.1967 1.12344 -11.2816
LeftHand  -0.0240169 5.16549 5.08376
RightShoulder  1.93345 3.24578 23.377
RightArm  -25.2371 18.1384 46.3835
RightForeArm  56.3893 -3.14556 3.09423
RightHand  -0.0222731 -5.33221 -15.358
LeftUpLeg  -22.1008 5.76295 6.85465
LeftLeg  2.11726 17.8399 1.703
LeftFoot  -0.317287 0.451506 -4.6588
LeftToes  5.08156e-010 -6.90346e-011 -6.33378e-011
869
root  74.2903 38.9048 49.3872 -178.068 20.8125 179.551
RightUpLeg  2.55922 -7.1441 -3.7246
RightLeg  15.0912 -14.7126 -3.68747
RightFoot  -15.7008 0.27272 9.94766
RightToes  1.218e-010 1.26228e-014 -6.01869e-014
Spine  -5.54806 1.57757 5.33535
Spine1  9.4491 1.80171 -1.96972
HEad  3.05777 16.3504 -11.7346
LeftShoulder1  0.729552 0.86906 -23.9515
LeftArm  -6.26356 11.9343 -46.8169
LeftForeArm  34.9002 1.79357 -11.1061
LeftHand  -0.021824 5.11874 5.03767
RightShoulder  2.02233 3.31899 24.454
RightArm  -24.7908 17.7424 48.0847
RightForeArm  57.0779 -2.86491 3.29331
RightHand  -0.0195602 -5.35577 -14.836
LeftUpLeg  -22.8905 6.52921 6.70466
LeftLeg  2.13091 22.0693 1.32249
LeftFoot  -0.632458 0.39365 -4.15956
LeftToes  5.08156e-010 -6.90346e-011 -6.33378e-011
870
root  74.3346 38.7516 48.7468 -177.696 19.3843 179.717
RightUpLeg  3.19991 -7.72669 -3.78263
RightLeg  15.7727 -15.3589 -4.16812
RightFoot  -16.5785 0.390836 10.9815
RightToes  1.218e-010 1.26228e-014 -6.01869e-014
Spine  -5.63805 1.60631 5.14995
Spine1  9.72643 1.93685 -2.3275
HEad  2.12621 14.8316 -11.8395
LeftShoulder1  0.70747 0.948499 -24.0274
LeftArm  -4.91886 12.3463 -46.2597
LeftForeArm  33.1307 2.06625 -11.6383
LeftHand  -0.0185897 5.27423 5.21621
RightShoulder  2.07221 3.38724 24.9132
RightArm  -24.1101 17.3776 50.3901
RightForeArm  58.0671 -2.59252 3.574
RightHand  -0.0183411 -5.36813 -14.4082
LeftUpLeg  -23.4401 6.75451 6.17562
LeftLeg  3.12211 25.8033 1.64126
LeftFoot  -1.11332 0.325799 -3.56595
LeftToes  5.08156e-010 -6.90346e-011 -6.33378e-011
871
root  74.3111 38.5975 48.0521 -177.265 18.6415 179.926
RightUpLeg  3.60729 -8.32815 -4.01769
RightLeg  16.6956 -15.0028 -4.63269
RightFoot  -17.2893 0.523069 12.2911
RightToes  1.218e-010 1.26228e-014 -6.01869e-014
Spine  -5.68978 1.8556 5.16595
Spine1  10.2689 2.34367 -2.8195
HEad  0.842237 13.9475 -12.346
LeftShoulder1  0.649679 1.16355 -24.3585
LeftArm  -4.75838 12.638 -45.8116
LeftForeArm  32.6669 2.39446 -11.7161
LeftHand  -0.0175583 5.34872 5.25601
RightShoulder  2.06027 3.33304 24.9885
RightArm  -22.49 17.4102 52.9948
RightForeArm  58.7752 -2.32537 4.32237
RightHand  -0.0128635 -5.4148 -14.2503
LeftUpLeg  -23.8596 7.22471 5.70951
LeftLeg  4.96544 27.5278 2.16434
LeftFoot  -1.2705 0.334318 -3.70779
LeftToes  5.08156e-010 -6.90346e-011 -6.33378e-011
872
root  74.2382 38.5361 47.2916 -176.941 18.1637 179.9
RightUpLeg  4.10335 -8.68332 -4.67041
RightLeg  17.4734 -14.3658 -4.97697
RightFoot  -17.2481 0.602948 13.9027
RightToes  1.218e-010 1.26228e-014 -6.01869e-014
Spine  -5.97007 1.94423 4.75312
Spine1  11.0742 2.64552 -3.39039
HEad  -0.576009 13.7035 -12.6477
LeftShoulder1  0.540313 1.54234 -24.6882
LeftArm  -4.80418 13.1636 -45.3106
LeftForeArm  32.6939 2.66435 -11.6926
LeftHand  -0.0382169 4.89825 3.56218
RightShoulder  2.1342 3.54884 25.1007
RightArm  -20.3338 17.7579 55.6623
RightForeArm  60.1407 -2.26858 5.28447
RightHand  -0.0198978 -5.35872 -13.8046
LeftUpLeg  -24.0302 6.79431 5.25508
LeftLeg  5.96318 27.7249 2.87914
LeftFoot  2.90651 0.441781 -3.67595
LeftToes  5.08156e-010 -6.90346e-011 -6.33378e-011
873
root  74.0721 38.4336 46.4979 -176.436 17.7212 -179.994
RightUpLeg  3.72523 -8.26994 -5.2424
RightLeg  19.7916 -13.9316 -5.69149
RightFoot  -17.1644 0.714056 16.2423
RightToes  1.218e-010 1.26228e-014 -6.01869e-014
Spine  -5.69848 2.02673 4.55415
Spine1  10.9082 2.87139 -3.8869
HEad  -1.65992 13.3463 -12.5617
LeftShoulder1  0.492269 1.71404 -24.9903
LeftArm  -4.67073 13.7025 -44.7481
LeftForeArm  31.9993 3.1066 -11.7396
LeftHand  -0.0401719 4.81726 3.52933
RightShoulder  2.21571 3.73633 25.4501
RightArm  -18.4332 18.0897 58.0886
RightForeArm  62.8698 -1.95853 6.12294
RightHand  -0.0448226 -5.13207 -12.772
LeftUpLeg  -24.8862 6.85098 4.82498
LeftLeg  7.73208 26.2261 3.45995
LeftFoot  7.07855 0.486548 -3.26672
LeftToes  5.08156e-010 -6.90346e-011 -6.33378e-011
874
root  73.8577 38.3372 45.6733 -175.778 16.5529 179.933
RightUpLeg  2.90931 -8.07039 -6.14579
RightLeg  22.9014 -13.3101 -6.30124
RightFoot  -16.7336 0.798291 19.2132
RightToes  1.218e-010 1.26228e-014 -6.01869e-014
Spine  -5.22914 2.01917 4.2679
Spine1  10.0552 3.03032 -4.6175
HEad  -1.99768 12.3448 -11.8544
LeftShoulder1  0.548814 1.49776 -24.3886
LeftArm  -5.07956 14.4114 -45.0906
LeftForeArm  31.936 3.81832 -11.63
LeftHand  -0.0336495 5.0732 3.52467
RightShoulder  2.24437 3.74705 25.8263
RightArm  -16.7868 17.8336 60.1435
RightForeArm  64.7591 -1.15921 6.96561
RightHand  -0.0632993 -4.92171 -11.5189
LeftUpLeg  -26.7764 7.85608 3.40621
LeftLeg  11.4608 23.2868 4.45959
LeftFoot  6.87003 0.415842 -2.85572
LeftToes  5.08156e-010 -6.90346e-011 -6.33378e-011
